<svg xmlns="http://www.w3.org/2000/svg" viewBox="0 0 112 112" role="img" aria-label="PorchMe mark">

  <defs>

    <linearGradient id="b" x1="0" y1="0" x2="1" y2="1">

      <stop offset="0" stop-color="#0b3b7a"/>

      <stop offset="1" stop-color="#0a2a58"/>

    </linearGradient>

    <linearGradient id="gold" x1="0" y1="0" x2="1" y2="1">

      <stop offset="0" stop-color="#e7d39a"/>

      <stop offset="1" stop-color="#caa351"/>

    </linearGradient>

  </defs>

  <rect x="4" y="4" width="104" height="104" rx="20" fill="url(#b)" stroke="#1b2c58" stroke-width="2"/>

  <g opacity=".22" stroke="#b8c4d9" stroke-width="1">

    <path d="M16 32H96M16 56H96M16 80H96"/>

    <path d="M32 16V96M56 16V96M80 16V96"/>

  </g>

  <path d="M36 92V28h28c16 0 24 8 24 20s-8 20-24 20H48v24zM48 40h15c8 0 12 4 12 8s-4 8-12 8H48V40z"

        fill="url(#gold)"/>

</svg>
