<svg xmlns="http://www.w3.org/2000/svg" viewBox="0 0 64 64">

  <defs>

    <linearGradient id="g" x1="0" y1="0" x2="1" y2="1">

      <stop offset="0" stop-color="#0b3b7a"/>

      <stop offset="1" stop-color="#091f42"/>

    </linearGradient>

    <linearGradient id="gold" x1="0" y1="0" x2="1" y2="1">

      <stop offset="0" stop-color="#e7d39a"/>

      <stop offset="1" stop-color="#caa351"/>

    </linearGradient>

    <filter id="s" x="-20%" y="-20%" width="140%" height="140%">

      <feDropShadow dx="0" dy="1" stdDeviation="1" flood-color="#000" flood-opacity=".35"/>

    </filter>

  </defs>



  <!-- background -->

  <rect x="2" y="2" width="60" height="60" rx="12" fill="url(#g)" stroke="#1b2c58" stroke-width="2"/>



  <!-- subtle blueprint lines -->

  <g opacity=".22" stroke="#b8c4d9" stroke-width=".6">

    <path d="M6 20H58M6 32H58M6 44H58"/>

    <path d="M20 6V58M32 6V58M44 6V58"/>

  </g>



  <!-- golden P monogram -->

  <g filter="url(#s)">

    <path d="M22 48V16h14c8 0 12 4 12 10s-4 10-12 10h-9v12z

             M31 22h5c4 0 6 2 6 4s-2 4-6 4h-5v-8z"

          fill="url(#gold)"/>

  </g>

</svg>
