
<!-- image/icon-instagram.svg -->

<svg xmlns="http://www.w3.org/2000/svg" viewBox="0 0 448 512">

  <path fill="currentColor" d="M224 96c60.6 0 67.9.2 91.9 1.3 22.2 1 34.2 4.7 42.2 7.8 10.6 4.1 18.1 9 26 16.9 7.9 7.9 12.8 15.4 16.9 26 3.1 8 6.8 20 7.8 42.2 1.1 24 1.3 31.3 1.3 91.9s-.2 67.9-1.3 91.9c-1 22.2-4.7 34.2-7.8 42.2-4.1 10.6-9 18.1-16.9 26-7.9 7.9-15.4 12.8-26 16.9-8 3.1-20 6.8-42.2 7.8-24 1.1-31.3 1.3-91.9 1.3s-67.9-.2-91.9-1.3c-22.2-1-34.2-4.7-42.2-7.8-10.6-4.1-18.1-9-26-16.9-7.9-7.9-12.8-15.4-16.9-26-3.1-8-6.8-20-7.8-42.2C96.2 291.9 96 284.6 96 224s.2-67.9 1.3-91.9c1-22.2 4.7-34.2 7.8-42.2 4.1-10.6 9-18.1 16.9-26 7.9-7.9 15.4-12.8 26-16.9 8-3.1 20-6.8 42.2-7.8C156.1 96.2 163.4 96 224 96zm0 48c-59.2 0-66.2.2-89.6 1.3-21.6 1-33.3 4.6-41.1 7.6-10.4 4-17.8 8.8-25.6 16.5-7.7 7.7-12.5 15.2-16.5 25.6-3 7.8-6.6 19.6-7.6 41.1-1.1 23.3-1.3 30.4-1.3 89.6s.2 66.2 1.3 89.6c1 21.6 4.6 33.3 7.6 41.1 4 10.4 8.8 17.8 16.5 25.6 7.7 7.7 15.2 12.5 25.6 16.5 7.8 3 19.6 6.6 41.1 7.6 23.3 1.1 30.4 1.3 89.6 1.3s66.2-.2 89.6-1.3c21.6-1 33.3-4.6 41.1-7.6 10.4-4 17.8-8.8 25.6-16.5 7.7-7.7 12.5-15.2 16.5-25.6 3-7.8 6.6-19.6 7.6-41.1 1.1-23.3 1.3-30.4 1.3-89.6s-.2-66.2-1.3-89.6c-1-21.6-4.6-33.3-7.6-41.1-4-10.4-8.8-17.8-16.5-25.6-7.7-7.7-15.2-12.5-25.6-16.5-7.8-3-19.6-6.6-41.1-7.6-23.3-1.1-30.4-1.3-89.6-1.3zm0 58.7A69.3 69.3 0 1 1 154.7 272 69.3 69.3 0 0 1 224 202.7zm0 176A106.7 106.7 0 1 0 117.3 272 106.7 106.7 0 0 0 224 378.7zM330.7 170.7a21.3 21.3 0 1 0-21.3-21.3 21.3 21.3 0 0 0 21.3 21.3z"/>

</svg>
