<svg xmlns="http://www.w3.org/2000/svg" viewBox="0 0 448 512">

  <path fill="#e9edf1" d="M224 202.66A53.34 53.34 0 1 0 277.34 256 53.38 53.38 0 0 0 224 202.66zm124.71-41a54.09 54.09 0 0 0-30.09-30.09C296.68 122 224 122 224 122s-72.69 0-94.62 9.57a54.09 54.09 0 0 0-30.09 30.09C90.72 168.32 90.72 224 90.72 224s0 55.68 8.57 76.37a54.09 54.09 0 0 0 30.09 30.09C151.31 362 224 362 224 362s72.69 0 94.62-9.57a54.09 54.09 0 0 0 30.09-30.09C357.28 279.68 357.28 224 357.28 224s0-55.68-8.57-76.34zM224 338.6a82.6 82.6 0 1 1 82.6-82.6 82.6 82.6 0 0 1-82.6 82.6zm85.36-148.6a19.2 19.2 0 1 1 19.2-19.2 19.21 19.21 0 0 1-19.2 19.2zM224 0C100.29 0 0 100.29 0 224s100.29 224 224 224 224-100.29 224-224S347.71 0 224 0z"/>

</svg>
