
<svg xmlns="http://www.w3.org/2000/svg" viewBox="0 0 448 512">

  <path fill="#e9edf1" d="M448,209.3c-17.4,7.7-36.2,12.8-56,14.8c20.1-12,35.5-31,42.8-53.7c-18.8,11.2-39.6,19.3-61.8,23.7

  C356.8,173.4,331,160,302.4,160c-55,0-99.6,44.6-99.6,99.6c0,7.8,0.9,15.4,2.6,22.7C136,278.9,72.3,245.3,29.8,193.5

  c-8.5,14.5-13.4,31.4-13.4,49.4c0,34.1,17.4,64.3,43.9,82c-16.1-0.5-31.3-5-44.6-12.3c0,0.4,0,0.8,0,1.2c0,47.6,33.8,87.4,78.7,96.4

  c-8.2,2.2-16.9,3.4-25.9,3.4c-6.3,0-12.5-0.6-18.5-1.8c12.5,38.9,48.9,67.2,91.9,68c-33.7,26.4-76,42.1-122.1,42.1

  c-7.9,0-15.7-0.5-23.4-1.4c43.5,27.9,95.2,44.1,150.8,44.1c181,0,280.1-149.9,280.1-280.1c0-4.3-0.1-8.5-0.3-12.7

  C421.5,245.7,436.3,229.3,448,209.3z"/>

</svg>
